<svg xmlns="http://www.w3.org/2000/svg" xmlns:xlink="http://www.w3.org/1999/xlink" width="500" zoomAndPan="magnify" viewBox="0 0 375 374.999991" height="500" preserveAspectRatio="xMidYMid meet" version="1.0"><defs><g/></defs><g fill="#edeae9" fill-opacity="1"><g transform="translate(7.643405, 197.624987)"><g><path d="M 10.78125 0.609375 C 9.757812 0.609375 8.753906 0.488281 7.765625 0.25 C 6.785156 0.0195312 5.847656 -0.320312 4.953125 -0.78125 C 4.054688 -1.238281 3.265625 -1.847656 2.578125 -2.609375 C 1.890625 -3.367188 1.519531 -4.273438 1.46875 -5.328125 L 1.46875 -7 C 1.46875 -7.539062 1.664062 -7.992188 2.0625 -8.359375 C 2.46875 -8.722656 2.941406 -8.90625 3.484375 -8.90625 C 4.648438 -8.800781 5.285156 -8.164062 5.390625 -7 L 5.390625 -6.234375 C 5.429688 -5.628906 5.660156 -5.125 6.078125 -4.71875 C 6.492188 -4.320312 6.957031 -4.003906 7.46875 -3.765625 C 7.988281 -3.535156 8.523438 -3.363281 9.078125 -3.25 C 9.640625 -3.132812 10.207031 -3.078125 10.78125 -3.078125 C 11.34375 -3.078125 11.898438 -3.132812 12.453125 -3.25 C 13.015625 -3.363281 13.550781 -3.535156 14.0625 -3.765625 C 14.582031 -4.003906 15.050781 -4.320312 15.46875 -4.71875 C 15.894531 -5.125 16.125 -5.628906 16.15625 -6.234375 L 16.15625 -15.90625 C 16.15625 -16.445312 16.351562 -16.894531 16.75 -17.25 C 17.15625 -17.613281 17.632812 -17.796875 18.1875 -17.796875 C 19.351562 -17.703125 19.992188 -17.070312 20.109375 -15.90625 L 20.109375 -5.328125 C 20.054688 -4.273438 19.679688 -3.367188 18.984375 -2.609375 C 18.296875 -1.847656 17.5 -1.238281 16.59375 -0.78125 C 15.695312 -0.320312 14.753906 0.0195312 13.765625 0.25 C 12.785156 0.488281 11.789062 0.609375 10.78125 0.609375 Z M 10.78125 0.609375 "/></g></g></g><g fill="#edeae9" fill-opacity="1"><g transform="translate(29.686716, 197.624987)"><g><path d="M 7.90625 -0.0625 C 6.1875 -0.113281 4.882812 -0.515625 4 -1.265625 C 3.125 -2.023438 2.488281 -2.875 2.09375 -3.8125 C 1.707031 -4.757812 1.515625 -5.722656 1.515625 -6.703125 C 1.515625 -7.722656 1.707031 -8.703125 2.09375 -9.640625 C 2.476562 -10.585938 3.113281 -11.4375 4 -12.1875 C 4.882812 -12.945312 6.007812 -13.335938 7.375 -13.359375 L 16.859375 -13.359375 C 18.234375 -13.335938 19.363281 -12.945312 20.25 -12.1875 C 21.132812 -11.4375 21.765625 -10.585938 22.140625 -9.640625 C 22.523438 -8.703125 22.71875 -7.722656 22.71875 -6.703125 C 22.71875 -5.722656 22.519531 -4.757812 22.125 -3.8125 C 21.738281 -2.875 21.109375 -2.023438 20.234375 -1.265625 C 19.359375 -0.515625 18.0625 -0.113281 16.34375 -0.0625 Z M 7.265625 -9.421875 C 6.890625 -9.421875 6.566406 -9.269531 6.296875 -8.96875 C 6.023438 -8.664062 5.820312 -8.316406 5.6875 -7.921875 C 5.5625 -7.523438 5.5 -7.128906 5.5 -6.734375 C 5.5 -6.328125 5.5625 -5.921875 5.6875 -5.515625 C 5.820312 -5.117188 6.023438 -4.769531 6.296875 -4.46875 C 6.566406 -4.164062 6.890625 -4.003906 7.265625 -3.984375 L 16.984375 -3.984375 C 17.359375 -4.003906 17.679688 -4.164062 17.953125 -4.46875 C 18.222656 -4.769531 18.421875 -5.117188 18.546875 -5.515625 C 18.671875 -5.921875 18.734375 -6.328125 18.734375 -6.734375 C 18.734375 -7.128906 18.671875 -7.523438 18.546875 -7.921875 C 18.421875 -8.316406 18.222656 -8.664062 17.953125 -8.96875 C 17.679688 -9.269531 17.359375 -9.421875 16.984375 -9.421875 Z M 7.265625 -9.421875 "/></g></g></g><g fill="#edeae9" fill-opacity="1"><g transform="translate(53.925575, 197.624987)"><g><path d="M 3.859375 -17.796875 C 4.390625 -17.785156 4.835938 -17.597656 5.203125 -17.234375 C 5.578125 -16.867188 5.773438 -16.425781 5.796875 -15.90625 L 5.796875 -13.359375 L 14.875 -13.359375 C 16.238281 -13.335938 17.363281 -12.945312 18.25 -12.1875 C 19.144531 -11.4375 19.773438 -10.59375 20.140625 -9.65625 C 20.535156 -8.707031 20.734375 -7.722656 20.734375 -6.703125 L 20.765625 -6.703125 L 20.765625 -1.609375 C 20.765625 -1.066406 20.5625 -0.613281 20.15625 -0.25 C 19.757812 0.113281 19.285156 0.296875 18.734375 0.296875 C 17.566406 0.191406 16.925781 -0.441406 16.8125 -1.609375 L 16.8125 -6.734375 C 16.8125 -7.109375 16.738281 -7.5 16.59375 -7.90625 C 16.445312 -8.3125 16.234375 -8.664062 15.953125 -8.96875 C 15.679688 -9.269531 15.363281 -9.421875 15 -9.421875 L 5.796875 -9.421875 L 5.796875 -1.546875 C 5.679688 -0.378906 5.035156 0.25 3.859375 0.34375 C 3.316406 0.34375 2.84375 0.164062 2.4375 -0.1875 C 2.039062 -0.550781 1.84375 -1.003906 1.84375 -1.546875 L 1.84375 -15.90625 C 1.863281 -16.445312 2.066406 -16.894531 2.453125 -17.25 C 2.847656 -17.613281 3.316406 -17.796875 3.859375 -17.796875 Z M 3.859375 -17.796875 "/></g></g></g><g fill="#edeae9" fill-opacity="1"><g transform="translate(76.525091, 197.624987)"><g><path d="M 11.1875 -13.796875 C 12.195312 -13.796875 13.195312 -13.675781 14.1875 -13.4375 C 15.175781 -13.207031 16.117188 -12.863281 17.015625 -12.40625 C 17.910156 -11.945312 18.703125 -11.332031 19.390625 -10.5625 C 20.085938 -9.800781 20.46875 -8.894531 20.53125 -7.84375 L 20.53125 -1.609375 C 20.40625 -0.441406 19.757812 0.191406 18.59375 0.296875 C 18.050781 0.296875 17.578125 0.113281 17.171875 -0.25 C 16.773438 -0.613281 16.578125 -1.066406 16.578125 -1.609375 L 16.578125 -6.9375 C 16.535156 -7.539062 16.300781 -8.039062 15.875 -8.4375 C 15.457031 -8.84375 14.988281 -9.160156 14.46875 -9.390625 C 13.957031 -9.628906 13.421875 -9.804688 12.859375 -9.921875 C 12.304688 -10.046875 11.75 -10.109375 11.1875 -10.109375 C 10.625 -10.109375 10.0625 -10.046875 9.5 -9.921875 C 8.945312 -9.804688 8.410156 -9.628906 7.890625 -9.390625 C 7.367188 -9.160156 6.898438 -8.84375 6.484375 -8.4375 C 6.066406 -8.039062 5.835938 -7.539062 5.796875 -6.9375 L 5.796875 -1.609375 C 5.703125 -0.441406 5.066406 0.191406 3.890625 0.296875 C 3.347656 0.296875 2.875 0.113281 2.46875 -0.25 C 2.070312 -0.613281 1.875 -1.066406 1.875 -1.609375 L 1.875 -7.84375 C 1.9375 -8.894531 2.304688 -9.800781 2.984375 -10.5625 C 3.671875 -11.332031 4.460938 -11.945312 5.359375 -12.40625 C 6.253906 -12.863281 7.191406 -13.207031 8.171875 -13.4375 C 9.160156 -13.675781 10.164062 -13.796875 11.1875 -13.796875 Z M 11.1875 -13.796875 "/></g></g></g><g fill="#edeae9" fill-opacity="1"><g transform="translate(98.91969, 197.624987)"><g/></g></g><g fill="#edeae9" fill-opacity="1"><g transform="translate(113.90797, 197.624987)"><g><path d="M 3.8125 -17.796875 C 4.351562 -17.796875 4.816406 -17.613281 5.203125 -17.25 C 5.597656 -16.894531 5.804688 -16.445312 5.828125 -15.90625 L 5.828125 -8.84375 C 5.804688 -8.039062 5.859375 -7.300781 5.984375 -6.625 C 6.109375 -5.957031 6.414062 -5.359375 6.90625 -4.828125 C 7.394531 -4.304688 8.007812 -4.023438 8.75 -3.984375 L 18.125 -3.984375 C 18.664062 -3.960938 19.117188 -3.753906 19.484375 -3.359375 C 19.847656 -2.972656 20.03125 -2.507812 20.03125 -1.96875 C 20.007812 -1.4375 19.816406 -0.988281 19.453125 -0.625 C 19.097656 -0.269531 18.65625 -0.0820312 18.125 -0.0625 L 7.765625 -0.0625 C 6.390625 -0.132812 5.257812 -0.59375 4.375 -1.4375 C 3.488281 -2.289062 2.847656 -3.332031 2.453125 -4.5625 C 2.085938 -5.789062 1.894531 -7.097656 1.875 -8.484375 L 1.875 -15.90625 C 1.894531 -16.425781 2.085938 -16.867188 2.453125 -17.234375 C 2.828125 -17.597656 3.28125 -17.785156 3.8125 -17.796875 Z M 3.8125 -17.796875 "/></g></g></g><g fill="#edeae9" fill-opacity="1"><g transform="translate(134.868143, 197.624987)"><g><path d="M 3.859375 -17.796875 C 4.390625 -17.785156 4.835938 -17.597656 5.203125 -17.234375 C 5.578125 -16.867188 5.773438 -16.425781 5.796875 -15.90625 L 5.796875 -1.546875 C 5.679688 -0.378906 5.035156 0.25 3.859375 0.34375 C 3.316406 0.34375 2.84375 0.164062 2.4375 -0.1875 C 2.039062 -0.550781 1.84375 -1.003906 1.84375 -1.546875 L 1.84375 -15.90625 C 1.863281 -16.445312 2.066406 -16.894531 2.453125 -17.25 C 2.847656 -17.613281 3.316406 -17.796875 3.859375 -17.796875 Z M 3.859375 -17.796875 "/></g></g></g><g fill="#edeae9" fill-opacity="1"><g transform="translate(142.537927, 197.624987)"><g><path d="M 7.90625 -0.0625 C 6.1875 -0.113281 4.882812 -0.515625 4 -1.265625 C 3.125 -2.023438 2.488281 -2.875 2.09375 -3.8125 C 1.707031 -4.757812 1.515625 -5.722656 1.515625 -6.703125 C 1.515625 -7.722656 1.707031 -8.703125 2.09375 -9.640625 C 2.476562 -10.585938 3.113281 -11.4375 4 -12.1875 C 4.882812 -12.945312 6.007812 -13.335938 7.375 -13.359375 L 16.859375 -13.359375 C 18.234375 -13.335938 19.363281 -12.945312 20.25 -12.1875 C 21.132812 -11.4375 21.765625 -10.585938 22.140625 -9.640625 C 22.523438 -8.703125 22.71875 -7.722656 22.71875 -6.703125 C 22.71875 -5.722656 22.519531 -4.757812 22.125 -3.8125 C 21.738281 -2.875 21.109375 -2.023438 20.234375 -1.265625 C 19.359375 -0.515625 18.0625 -0.113281 16.34375 -0.0625 Z M 7.265625 -9.421875 C 6.890625 -9.421875 6.566406 -9.269531 6.296875 -8.96875 C 6.023438 -8.664062 5.820312 -8.316406 5.6875 -7.921875 C 5.5625 -7.523438 5.5 -7.128906 5.5 -6.734375 C 5.5 -6.328125 5.5625 -5.921875 5.6875 -5.515625 C 5.820312 -5.117188 6.023438 -4.769531 6.296875 -4.46875 C 6.566406 -4.164062 6.890625 -4.003906 7.265625 -3.984375 L 16.984375 -3.984375 C 17.359375 -4.003906 17.679688 -4.164062 17.953125 -4.46875 C 18.222656 -4.769531 18.421875 -5.117188 18.546875 -5.515625 C 18.671875 -5.921875 18.734375 -6.328125 18.734375 -6.734375 C 18.734375 -7.128906 18.671875 -7.523438 18.546875 -7.921875 C 18.421875 -8.316406 18.222656 -8.664062 17.953125 -8.96875 C 17.679688 -9.269531 17.359375 -9.421875 16.984375 -9.421875 Z M 7.265625 -9.421875 "/></g></g></g><g fill="#edeae9" fill-opacity="1"><g transform="translate(166.776786, 197.624987)"><g><path d="M 3.8125 -13.703125 C 4.351562 -13.703125 4.816406 -13.519531 5.203125 -13.15625 C 5.597656 -12.800781 5.804688 -12.347656 5.828125 -11.796875 L 5.828125 -8.84375 C 5.804688 -8.039062 5.859375 -7.300781 5.984375 -6.625 C 6.109375 -5.957031 6.414062 -5.359375 6.90625 -4.828125 C 7.394531 -4.304688 8.007812 -4.023438 8.75 -3.984375 L 16.578125 -3.984375 L 16.578125 -11.734375 C 16.578125 -12.285156 16.773438 -12.738281 17.171875 -13.09375 C 17.578125 -13.457031 18.050781 -13.640625 18.59375 -13.640625 C 19.757812 -13.546875 20.40625 -12.910156 20.53125 -11.734375 L 20.53125 -2.203125 C 20.53125 -0.640625 20.3125 0.832031 19.875 2.21875 C 19.488281 3.445312 18.847656 4.488281 17.953125 5.34375 C 17.066406 6.195312 15.941406 6.660156 14.578125 6.734375 L 4.453125 6.734375 C 3.921875 6.710938 3.472656 6.519531 3.109375 6.15625 C 2.753906 5.800781 2.566406 5.359375 2.546875 4.828125 C 2.546875 4.285156 2.722656 3.816406 3.078125 3.421875 C 3.441406 3.035156 3.898438 2.832031 4.453125 2.8125 L 13.59375 2.8125 C 14.332031 2.769531 14.941406 2.484375 15.421875 1.953125 C 15.910156 1.429688 16.226562 0.816406 16.375 0.109375 C 16.382812 0.0546875 16.390625 0 16.390625 -0.0625 L 7.765625 -0.0625 C 6.390625 -0.132812 5.257812 -0.59375 4.375 -1.4375 C 3.488281 -2.289062 2.847656 -3.332031 2.453125 -4.5625 C 2.085938 -5.789062 1.894531 -7.097656 1.875 -8.484375 L 1.875 -11.796875 C 1.894531 -12.328125 2.085938 -12.769531 2.453125 -13.125 C 2.828125 -13.488281 3.28125 -13.679688 3.8125 -13.703125 Z M 3.8125 -13.703125 "/></g></g></g><g fill="#edeae9" fill-opacity="1"><g transform="translate(189.28848, 197.624987)"><g><path d="M 18.15625 -15.90625 C 18.269531 -17.070312 18.914062 -17.703125 20.09375 -17.796875 C 20.632812 -17.796875 21.101562 -17.613281 21.5 -17.25 C 21.90625 -16.894531 22.109375 -16.445312 22.109375 -15.90625 L 22.109375 -1.96875 C 22.085938 -1.414062 21.878906 -0.957031 21.484375 -0.59375 C 21.097656 -0.238281 20.632812 -0.0625 20.09375 -0.0625 L 7.78125 -0.0625 C 6.070312 -0.113281 4.773438 -0.515625 3.890625 -1.265625 C 3.015625 -2.023438 2.378906 -2.875 1.984375 -3.8125 C 1.597656 -4.757812 1.40625 -5.722656 1.40625 -6.703125 C 1.40625 -7.722656 1.59375 -8.703125 1.96875 -9.640625 C 2.351562 -10.585938 2.988281 -11.4375 3.875 -12.1875 C 4.769531 -12.945312 5.898438 -13.335938 7.265625 -13.359375 L 14.640625 -13.359375 C 15.179688 -13.359375 15.640625 -13.160156 16.015625 -12.765625 C 16.410156 -12.390625 16.609375 -11.929688 16.609375 -11.390625 C 16.609375 -10.847656 16.414062 -10.382812 16.03125 -10 C 15.644531 -9.613281 15.179688 -9.421875 14.640625 -9.421875 L 7.140625 -9.421875 C 6.773438 -9.421875 6.453125 -9.269531 6.171875 -8.96875 C 5.898438 -8.664062 5.703125 -8.316406 5.578125 -7.921875 C 5.453125 -7.523438 5.390625 -7.128906 5.390625 -6.734375 C 5.390625 -6.328125 5.453125 -5.921875 5.578125 -5.515625 C 5.703125 -5.117188 5.898438 -4.769531 6.171875 -4.46875 C 6.453125 -4.164062 6.773438 -4.003906 7.140625 -3.984375 L 17.390625 -3.984375 C 17.898438 -4.003906 18.15625 -4.257812 18.15625 -4.75 Z M 18.15625 -15.90625 "/></g></g></g><g fill="#edeae9" fill-opacity="1"><g transform="translate(213.410244, 197.624987)"><g/></g></g><g fill="#edeae9" fill-opacity="1"><g transform="translate(228.398524, 197.624987)"><g><path d="M 20.796875 -15.375 C 20.796875 -14.820312 20.597656 -14.363281 20.203125 -14 C 19.828125 -13.601562 19.367188 -13.40625 18.828125 -13.40625 L 7.109375 -13.40625 C 6.742188 -13.382812 6.4375 -13.300781 6.1875 -13.15625 C 5.945312 -13.007812 5.765625 -12.84375 5.640625 -12.65625 C 5.523438 -12.476562 5.46875 -12.289062 5.46875 -12.09375 C 5.46875 -11.894531 5.523438 -11.703125 5.640625 -11.515625 C 5.765625 -11.335938 5.945312 -11.175781 6.1875 -11.03125 C 6.4375 -10.882812 6.742188 -10.800781 7.109375 -10.78125 L 15.4375 -10.78125 C 16.800781 -10.738281 17.925781 -10.421875 18.8125 -9.828125 C 19.695312 -9.234375 20.328125 -8.550781 20.703125 -7.78125 C 21.085938 -7.007812 21.28125 -6.222656 21.28125 -5.421875 C 21.28125 -4.640625 21.082031 -3.863281 20.6875 -3.09375 C 20.300781 -2.320312 19.671875 -1.632812 18.796875 -1.03125 C 17.921875 -0.4375 16.800781 -0.140625 15.4375 -0.140625 L 15.25 -0.140625 C 15.132812 -0.117188 15.019531 -0.109375 14.90625 -0.109375 L 3.828125 -0.109375 C 3.285156 -0.109375 2.820312 -0.300781 2.4375 -0.6875 C 2.0625 -1.070312 1.875 -1.535156 1.875 -2.078125 C 1.875 -2.628906 2.066406 -3.085938 2.453125 -3.453125 C 2.828125 -3.847656 3.285156 -4.046875 3.828125 -4.046875 L 15.609375 -4.046875 C 15.972656 -4.023438 16.273438 -4.09375 16.515625 -4.25 C 16.765625 -4.40625 16.945312 -4.582031 17.0625 -4.78125 C 17.1875 -4.988281 17.25 -5.203125 17.25 -5.421875 C 17.25 -5.554688 17.1875 -5.742188 17.0625 -5.984375 C 16.945312 -6.234375 16.765625 -6.4375 16.515625 -6.59375 C 16.273438 -6.75 15.972656 -6.835938 15.609375 -6.859375 L 7.296875 -6.859375 C 5.921875 -6.890625 4.789062 -7.195312 3.90625 -7.78125 C 3.019531 -8.375 2.382812 -9.046875 2 -9.796875 C 1.625 -10.546875 1.4375 -11.3125 1.4375 -12.09375 C 1.4375 -12.851562 1.628906 -13.609375 2.015625 -14.359375 C 2.410156 -15.109375 3.046875 -15.773438 3.921875 -16.359375 C 4.796875 -16.953125 5.921875 -17.269531 7.296875 -17.3125 L 7.46875 -17.3125 C 7.582031 -17.320312 7.695312 -17.328125 7.8125 -17.328125 L 18.828125 -17.328125 C 19.367188 -17.328125 19.832031 -17.132812 20.21875 -16.75 C 20.601562 -16.375 20.796875 -15.914062 20.796875 -15.375 Z M 20.796875 -15.375 "/></g></g></g><g fill="#edeae9" fill-opacity="1"><g transform="translate(251.115136, 197.624987)"><g><path d="M 18.21875 -1.609375 L 18.21875 -8.671875 C 18.21875 -9.160156 17.960938 -9.410156 17.453125 -9.421875 L 7.203125 -9.421875 C 6.828125 -9.410156 6.503906 -9.25 6.234375 -8.9375 C 5.960938 -8.632812 5.765625 -8.285156 5.640625 -7.890625 C 5.515625 -7.492188 5.453125 -7.085938 5.453125 -6.671875 C 5.453125 -6.285156 5.515625 -5.890625 5.640625 -5.484375 C 5.765625 -5.085938 5.960938 -4.738281 6.234375 -4.4375 C 6.503906 -4.132812 6.828125 -3.984375 7.203125 -3.984375 L 14.703125 -3.984375 C 15.242188 -3.984375 15.703125 -3.789062 16.078125 -3.40625 C 16.460938 -3.03125 16.65625 -2.566406 16.65625 -2.015625 C 16.65625 -1.472656 16.460938 -1.015625 16.078125 -0.640625 C 15.703125 -0.253906 15.242188 -0.0625 14.703125 -0.0625 L 7.328125 -0.0625 C 5.953125 -0.0820312 4.820312 -0.46875 3.9375 -1.21875 C 3.050781 -1.96875 2.414062 -2.816406 2.03125 -3.765625 C 1.65625 -4.710938 1.46875 -5.691406 1.46875 -6.703125 C 1.46875 -7.679688 1.660156 -8.644531 2.046875 -9.59375 C 2.441406 -10.539062 3.078125 -11.390625 3.953125 -12.140625 C 4.828125 -12.890625 6.125 -13.296875 7.84375 -13.359375 L 20.140625 -13.359375 C 20.691406 -13.359375 21.160156 -13.175781 21.546875 -12.8125 C 21.941406 -12.445312 22.148438 -11.992188 22.171875 -11.453125 L 22.171875 -1.609375 C 22.171875 -1.066406 21.96875 -0.613281 21.5625 -0.25 C 21.164062 0.113281 20.691406 0.296875 20.140625 0.296875 C 18.972656 0.191406 18.332031 -0.441406 18.21875 -1.609375 Z M 18.21875 -1.609375 "/></g></g></g><g fill="#edeae9" fill-opacity="1"><g transform="translate(275.207626, 197.624987)"><g><path d="M 11.1875 -13.796875 C 12.195312 -13.796875 13.195312 -13.675781 14.1875 -13.4375 C 15.175781 -13.207031 16.117188 -12.863281 17.015625 -12.40625 C 17.910156 -11.945312 18.703125 -11.332031 19.390625 -10.5625 C 20.085938 -9.800781 20.46875 -8.894531 20.53125 -7.84375 L 20.53125 -1.609375 C 20.40625 -0.441406 19.757812 0.191406 18.59375 0.296875 C 18.050781 0.296875 17.578125 0.113281 17.171875 -0.25 C 16.773438 -0.613281 16.578125 -1.066406 16.578125 -1.609375 L 16.578125 -6.9375 C 16.535156 -7.539062 16.300781 -8.039062 15.875 -8.4375 C 15.457031 -8.84375 14.988281 -9.160156 14.46875 -9.390625 C 13.957031 -9.628906 13.421875 -9.804688 12.859375 -9.921875 C 12.304688 -10.046875 11.75 -10.109375 11.1875 -10.109375 C 10.625 -10.109375 10.0625 -10.046875 9.5 -9.921875 C 8.945312 -9.804688 8.410156 -9.628906 7.890625 -9.390625 C 7.367188 -9.160156 6.898438 -8.84375 6.484375 -8.4375 C 6.066406 -8.039062 5.835938 -7.539062 5.796875 -6.9375 L 5.796875 -1.609375 C 5.703125 -0.441406 5.066406 0.191406 3.890625 0.296875 C 3.347656 0.296875 2.875 0.113281 2.46875 -0.25 C 2.070312 -0.613281 1.875 -1.066406 1.875 -1.609375 L 1.875 -7.84375 C 1.9375 -8.894531 2.304688 -9.800781 2.984375 -10.5625 C 3.671875 -11.332031 4.460938 -11.945312 5.359375 -12.40625 C 6.253906 -12.863281 7.191406 -13.207031 8.171875 -13.4375 C 9.160156 -13.675781 10.164062 -13.796875 11.1875 -13.796875 Z M 11.1875 -13.796875 "/></g></g></g><g fill="#edeae9" fill-opacity="1"><g transform="translate(297.602225, 197.624987)"><g><path d="M 8.203125 -17.796875 C 8.742188 -17.796875 9.207031 -17.613281 9.59375 -17.25 C 9.988281 -16.894531 10.195312 -16.445312 10.21875 -15.90625 L 10.21875 -13.359375 L 20.171875 -13.359375 C 20.722656 -13.359375 21.191406 -13.171875 21.578125 -12.796875 C 21.953125 -12.398438 22.140625 -11.929688 22.140625 -11.390625 C 22.140625 -10.847656 21.945312 -10.382812 21.5625 -10 C 21.1875 -9.613281 20.722656 -9.421875 20.171875 -9.421875 L 10.21875 -9.421875 L 10.21875 -8.84375 C 10.195312 -8.039062 10.25 -7.300781 10.375 -6.625 C 10.507812 -5.957031 10.816406 -5.359375 11.296875 -4.828125 C 11.785156 -4.304688 12.398438 -4.023438 13.140625 -3.984375 L 20.296875 -3.984375 C 20.835938 -3.960938 21.289062 -3.753906 21.65625 -3.359375 C 22.019531 -2.972656 22.203125 -2.507812 22.203125 -1.96875 C 22.179688 -1.4375 21.988281 -0.988281 21.625 -0.625 C 21.257812 -0.269531 20.816406 -0.0820312 20.296875 -0.0625 L 12.15625 -0.0625 C 10.789062 -0.132812 9.660156 -0.59375 8.765625 -1.4375 C 7.878906 -2.289062 7.242188 -3.332031 6.859375 -4.5625 C 6.484375 -5.789062 6.285156 -7.097656 6.265625 -8.484375 L 6.265625 -9.421875 L 2.90625 -9.421875 C 2.351562 -9.421875 1.890625 -9.617188 1.515625 -10.015625 C 1.128906 -10.390625 0.9375 -10.847656 0.9375 -11.390625 C 0.9375 -11.929688 1.125 -12.394531 1.5 -12.78125 C 1.882812 -13.164062 2.351562 -13.359375 2.90625 -13.359375 L 6.265625 -13.359375 L 6.265625 -15.90625 C 6.285156 -16.425781 6.476562 -16.867188 6.84375 -17.234375 C 7.21875 -17.597656 7.671875 -17.785156 8.203125 -17.796875 Z M 8.203125 -17.796875 "/></g></g></g><g fill="#edeae9" fill-opacity="1"><g transform="translate(320.757947, 197.624987)"><g><path d="M 7.90625 -0.0625 C 6.1875 -0.113281 4.882812 -0.515625 4 -1.265625 C 3.125 -2.023438 2.488281 -2.875 2.09375 -3.8125 C 1.707031 -4.757812 1.515625 -5.722656 1.515625 -6.703125 C 1.515625 -7.722656 1.707031 -8.703125 2.09375 -9.640625 C 2.476562 -10.585938 3.113281 -11.4375 4 -12.1875 C 4.882812 -12.945312 6.007812 -13.335938 7.375 -13.359375 L 16.859375 -13.359375 C 18.234375 -13.335938 19.363281 -12.945312 20.25 -12.1875 C 21.132812 -11.4375 21.765625 -10.585938 22.140625 -9.640625 C 22.523438 -8.703125 22.71875 -7.722656 22.71875 -6.703125 C 22.71875 -5.722656 22.519531 -4.757812 22.125 -3.8125 C 21.738281 -2.875 21.109375 -2.023438 20.234375 -1.265625 C 19.359375 -0.515625 18.0625 -0.113281 16.34375 -0.0625 Z M 7.265625 -9.421875 C 6.890625 -9.421875 6.566406 -9.269531 6.296875 -8.96875 C 6.023438 -8.664062 5.820312 -8.316406 5.6875 -7.921875 C 5.5625 -7.523438 5.5 -7.128906 5.5 -6.734375 C 5.5 -6.328125 5.5625 -5.921875 5.6875 -5.515625 C 5.820312 -5.117188 6.023438 -4.769531 6.296875 -4.46875 C 6.566406 -4.164062 6.890625 -4.003906 7.265625 -3.984375 L 16.984375 -3.984375 C 17.359375 -4.003906 17.679688 -4.164062 17.953125 -4.46875 C 18.222656 -4.769531 18.421875 -5.117188 18.546875 -5.515625 C 18.671875 -5.921875 18.734375 -6.328125 18.734375 -6.734375 C 18.734375 -7.128906 18.671875 -7.523438 18.546875 -7.921875 C 18.421875 -8.316406 18.222656 -8.664062 17.953125 -8.96875 C 17.679688 -9.269531 17.359375 -9.421875 16.984375 -9.421875 Z M 7.265625 -9.421875 "/></g></g></g><g fill="#edeae9" fill-opacity="1"><g transform="translate(344.996806, 197.624987)"><g><path d="M 20.4375 -11.65625 C 20.4375 -11.164062 20.242188 -10.753906 19.859375 -10.421875 C 19.484375 -10.109375 19.023438 -9.953125 18.484375 -9.953125 L 6.09375 -9.953125 C 5.832031 -9.953125 5.625 -9.898438 5.46875 -9.796875 C 5.3125 -9.703125 5.191406 -9.601562 5.109375 -9.5 C 5.035156 -9.394531 5 -9.300781 5 -9.21875 C 5 -9.125 5.035156 -9.019531 5.109375 -8.90625 C 5.191406 -8.800781 5.3125 -8.703125 5.46875 -8.609375 C 5.625 -8.523438 5.832031 -8.476562 6.09375 -8.46875 L 15.671875 -8.46875 C 16.898438 -8.445312 17.910156 -8.207031 18.703125 -7.75 C 19.503906 -7.289062 20.078125 -6.753906 20.421875 -6.140625 C 20.765625 -5.523438 20.9375 -4.90625 20.9375 -4.28125 C 20.9375 -3.675781 20.757812 -3.0625 20.40625 -2.4375 C 20.050781 -1.820312 19.476562 -1.285156 18.6875 -0.828125 C 17.90625 -0.367188 16.898438 -0.140625 15.671875 -0.140625 C 15.453125 -0.117188 15.296875 -0.109375 15.203125 -0.109375 L 3.828125 -0.109375 C 3.285156 -0.109375 2.820312 -0.269531 2.4375 -0.59375 C 2.0625 -0.914062 1.875 -1.3125 1.875 -1.78125 C 1.875 -2.269531 2.066406 -2.679688 2.453125 -3.015625 C 2.828125 -3.328125 3.285156 -3.484375 3.828125 -3.484375 L 15.90625 -3.484375 C 16.195312 -3.460938 16.429688 -3.5 16.609375 -3.59375 C 16.796875 -3.695312 16.9375 -3.804688 17.03125 -3.921875 C 17.132812 -4.035156 17.1875 -4.15625 17.1875 -4.28125 C 17.1875 -4.332031 17.132812 -4.429688 17.03125 -4.578125 C 16.9375 -4.722656 16.796875 -4.835938 16.609375 -4.921875 C 16.429688 -5.015625 16.195312 -5.070312 15.90625 -5.09375 L 6.296875 -5.09375 C 5.160156 -5.113281 4.222656 -5.351562 3.484375 -5.8125 C 2.742188 -6.269531 2.21875 -6.800781 1.90625 -7.40625 C 1.59375 -8.007812 1.4375 -8.613281 1.4375 -9.21875 C 1.4375 -9.820312 1.597656 -10.421875 1.921875 -11.015625 C 2.242188 -11.617188 2.769531 -12.140625 3.5 -12.578125 C 4.226562 -13.015625 5.160156 -13.253906 6.296875 -13.296875 C 6.492188 -13.316406 6.640625 -13.328125 6.734375 -13.328125 L 18.484375 -13.328125 C 19.023438 -13.328125 19.484375 -13.164062 19.859375 -12.84375 C 20.242188 -12.519531 20.4375 -12.125 20.4375 -11.65625 Z M 20.4375 -11.65625 "/></g></g></g></svg>